<mxfile host="65bd71144e" modified="2020-10-21T17:19:46.727Z" agent="5.0 (Macintosh; Intel Mac OS X 10_14_6) AppleWebKit/537.36 (KHTML, like Gecko) Code/1.50.1 Chrome/83.0.4103.122 Electron/9.2.1 Safari/537.36" etag="kS0se8snHAWLPmW9mIh2" version="13.6.5">
    <diagram id="7LgHgHcSaxze46kqs8R4" name="Page-1">
        <mxGraphModel dx="2877" dy="1763" grid="1" gridSize="10" guides="1" tooltips="1" connect="1" arrows="1" fold="1" page="1" pageScale="1" pageWidth="850" pageHeight="1100" math="0" shadow="0">
            <root>
                <mxCell id="0"/>
                <mxCell id="1" parent="0"/>
                <mxCell id="2" value="" style="rounded=0;whiteSpace=wrap;html=1;" parent="1" vertex="1">
                    <mxGeometry x="125" width="835" height="740" as="geometry"/>
                </mxCell>
                <mxCell id="3" value="Routers" style="text;html=1;strokeColor=none;fillColor=none;align=center;verticalAlign=middle;whiteSpace=wrap;rounded=0;fontStyle=1;fontSize=18;" parent="1" vertex="1">
                    <mxGeometry x="510" y="-30" width="40" height="20" as="geometry"/>
                </mxCell>
                <mxCell id="16" style="edgeStyle=orthogonalEdgeStyle;rounded=0;orthogonalLoop=1;jettySize=auto;html=1;exitX=1;exitY=0.5;exitDx=0;exitDy=0;entryX=0;entryY=0.5;entryDx=0;entryDy=0;" parent="1" source="4" target="9" edge="1">
                    <mxGeometry relative="1" as="geometry"/>
                </mxCell>
                <mxCell id="21" style="edgeStyle=orthogonalEdgeStyle;rounded=0;orthogonalLoop=1;jettySize=auto;html=1;" parent="1" source="4" target="13" edge="1">
                    <mxGeometry relative="1" as="geometry">
                        <Array as="points">
                            <mxPoint x="320" y="175"/>
                            <mxPoint x="320" y="175"/>
                        </Array>
                    </mxGeometry>
                </mxCell>
                <mxCell id="29" style="edgeStyle=orthogonalEdgeStyle;rounded=0;orthogonalLoop=1;jettySize=auto;html=1;exitX=0.5;exitY=1;exitDx=0;exitDy=0;" parent="1" source="4" target="27" edge="1">
                    <mxGeometry relative="1" as="geometry"/>
                </mxCell>
                <mxCell id="68" style="edgeStyle=orthogonalEdgeStyle;rounded=0;orthogonalLoop=1;jettySize=auto;html=1;entryX=0;entryY=0.5;entryDx=0;entryDy=0;" edge="1" parent="1" source="4" target="67">
                    <mxGeometry relative="1" as="geometry"/>
                </mxCell>
                <mxCell id="4" value="ENTRYPOINT 1&lt;br&gt;:80 (HTTP)" style="rounded=0;whiteSpace=wrap;html=1;" parent="1" vertex="1">
                    <mxGeometry x="160" y="160" width="100" height="30" as="geometry"/>
                </mxCell>
                <mxCell id="18" style="edgeStyle=orthogonalEdgeStyle;rounded=0;orthogonalLoop=1;jettySize=auto;html=1;entryX=0;entryY=0.5;entryDx=0;entryDy=0;" parent="1" source="5" target="14" edge="1">
                    <mxGeometry relative="1" as="geometry"/>
                </mxCell>
                <mxCell id="22" style="edgeStyle=orthogonalEdgeStyle;rounded=0;orthogonalLoop=1;jettySize=auto;html=1;entryX=0;entryY=0.5;entryDx=0;entryDy=0;" parent="1" source="5" target="11" edge="1">
                    <mxGeometry relative="1" as="geometry"/>
                </mxCell>
                <mxCell id="81" style="edgeStyle=orthogonalEdgeStyle;rounded=0;orthogonalLoop=1;jettySize=auto;html=1;exitX=1;exitY=0.5;exitDx=0;exitDy=0;entryX=0;entryY=0.5;entryDx=0;entryDy=0;fontSize=12;" edge="1" parent="1" source="5" target="69">
                    <mxGeometry relative="1" as="geometry"/>
                </mxCell>
                <mxCell id="5" value="ENTRYPOINT 2&lt;br&gt;:443 (HTTPS)" style="rounded=0;whiteSpace=wrap;html=1;" parent="1" vertex="1">
                    <mxGeometry x="160" y="535" width="100" height="30" as="geometry"/>
                </mxCell>
                <mxCell id="51" style="edgeStyle=orthogonalEdgeStyle;rounded=0;orthogonalLoop=1;jettySize=auto;html=1;fontSize=18;" parent="1" source="7" edge="1">
                    <mxGeometry relative="1" as="geometry">
                        <mxPoint x="120" y="345" as="targetPoint"/>
                    </mxGeometry>
                </mxCell>
                <mxCell id="7" value="Requests" style="text;html=1;strokeColor=none;fillColor=none;align=center;verticalAlign=middle;whiteSpace=wrap;rounded=0;fontSize=18;" parent="1" vertex="1">
                    <mxGeometry x="-60" y="330" width="90" height="30" as="geometry"/>
                </mxCell>
                <mxCell id="9" value="&lt;div&gt;&lt;span&gt;&lt;b&gt;Router 1 &quot;web-backend-router&quot;&lt;/b&gt;&lt;/span&gt;&lt;/div&gt;&lt;b&gt;RULE: &lt;/b&gt;&quot;Host(`esgf-dev1.llnl.gov`) &amp;amp;&amp;amp; PathPrefix(`/metagrid-backend`)&quot;&lt;br&gt;&lt;b&gt;MIDDLEWARE&lt;/b&gt;: redirect, csrf" style="rounded=0;whiteSpace=wrap;html=1;align=left;" parent="1" vertex="1">
                    <mxGeometry x="385" y="20" width="200" height="90" as="geometry"/>
                </mxCell>
                <mxCell id="31" style="edgeStyle=orthogonalEdgeStyle;rounded=0;orthogonalLoop=1;jettySize=auto;html=1;" parent="1" source="35" target="23" edge="1">
                    <mxGeometry relative="1" as="geometry"/>
                </mxCell>
                <mxCell id="40" style="edgeStyle=orthogonalEdgeStyle;rounded=0;orthogonalLoop=1;jettySize=auto;html=1;exitX=1;exitY=0.5;exitDx=0;exitDy=0;" parent="1" source="11" target="35" edge="1">
                    <mxGeometry relative="1" as="geometry"/>
                </mxCell>
                <mxCell id="11" value="&lt;div&gt;&lt;span&gt;&lt;b&gt;Router 2 &quot;web-backend-secure-router&quot;&lt;/b&gt;&lt;/span&gt;&lt;/div&gt;&lt;b&gt;&lt;div&gt;&lt;b&gt;RULE:&amp;nbsp;&lt;/b&gt;&lt;span style=&quot;font-weight: normal&quot;&gt; &quot;Host(`esgf-dev1.llnl.gov`) &amp;amp;&amp;amp; PathPrefix(`/metagrid-backend`)&quot;&lt;/span&gt;&lt;/div&gt;&lt;/b&gt;&lt;b&gt;MIDDLEWARE:&lt;/b&gt; csrf" style="rounded=0;whiteSpace=wrap;html=1;align=left;" parent="1" vertex="1">
                    <mxGeometry x="385" y="370" width="200" height="90" as="geometry"/>
                </mxCell>
                <mxCell id="13" value="&lt;div&gt;&lt;span&gt;&lt;b&gt;Router 3 &quot;web-frontend-router&quot;&lt;/b&gt;&lt;/span&gt;&lt;/div&gt;&lt;b&gt;RULE: &lt;/b&gt;&quot;Host(`esgf-dev1.llnl.gov`) &amp;amp;&amp;amp; PathPrefix(`/metagrid`)&quot;&lt;br&gt;&lt;b&gt;MIDDLEWARE&lt;/b&gt;: redirect, csrf" style="rounded=0;whiteSpace=wrap;html=1;align=left;" parent="1" vertex="1">
                    <mxGeometry x="385" y="130" width="200" height="90" as="geometry"/>
                </mxCell>
                <mxCell id="37" style="edgeStyle=orthogonalEdgeStyle;rounded=0;orthogonalLoop=1;jettySize=auto;html=1;exitX=1;exitY=0.5;exitDx=0;exitDy=0;" parent="1" source="14" target="36" edge="1">
                    <mxGeometry relative="1" as="geometry"/>
                </mxCell>
                <mxCell id="14" value="&lt;div&gt;&lt;span&gt;&lt;b&gt;Router 4 &quot;web-frontend-secure-router&quot;&lt;/b&gt;&lt;/span&gt;&lt;/div&gt;&lt;b&gt;&lt;div&gt;&lt;b&gt;RULE:&amp;nbsp;&lt;/b&gt;&lt;span style=&quot;font-weight: normal&quot;&gt; &quot;Host(`esgf-dev1.llnl.gov`) &amp;amp;&amp;amp; PathPrefix(`/metagrid`)&quot;&lt;/span&gt;&lt;/div&gt;&lt;/b&gt;&lt;b&gt;MIDDLEWARE:&lt;/b&gt; csrf" style="rounded=0;whiteSpace=wrap;html=1;align=left;" parent="1" vertex="1">
                    <mxGeometry x="385" y="505" width="200" height="90" as="geometry"/>
                </mxCell>
                <mxCell id="46" style="edgeStyle=orthogonalEdgeStyle;rounded=0;orthogonalLoop=1;jettySize=auto;html=1;exitX=1;exitY=0.5;exitDx=0;exitDy=0;" parent="1" source="23" target="45" edge="1">
                    <mxGeometry relative="1" as="geometry"/>
                </mxCell>
                <mxCell id="57" value="Port 5000" style="edgeLabel;html=1;align=center;verticalAlign=middle;resizable=0;points=[];" vertex="1" connectable="0" parent="46">
                    <mxGeometry x="-0.2556" y="-4" relative="1" as="geometry">
                        <mxPoint x="23.14" y="-4" as="offset"/>
                    </mxGeometry>
                </mxCell>
                <mxCell id="23" value="&lt;font style=&quot;font-size: 11px&quot;&gt;Service: Django&lt;br&gt;URL: http://django:5000&lt;/font&gt;" style="rounded=1;whiteSpace=wrap;html=1;align=left;" parent="1" vertex="1">
                    <mxGeometry x="800" y="385" width="120" height="60" as="geometry"/>
                </mxCell>
                <mxCell id="47" style="edgeStyle=orthogonalEdgeStyle;rounded=0;orthogonalLoop=1;jettySize=auto;html=1;exitX=1;exitY=0.5;exitDx=0;exitDy=0;" parent="1" source="25" target="41" edge="1">
                    <mxGeometry relative="1" as="geometry"/>
                </mxCell>
                <mxCell id="58" value="Port 3000" style="edgeLabel;html=1;align=center;verticalAlign=middle;resizable=0;points=[];" vertex="1" connectable="0" parent="47">
                    <mxGeometry x="0.0222" y="1" relative="1" as="geometry">
                        <mxPoint as="offset"/>
                    </mxGeometry>
                </mxCell>
                <mxCell id="25" value="&lt;font style=&quot;font-size: 11px&quot;&gt;Service: React&lt;br&gt;URL: http://react:3000&lt;/font&gt;" style="rounded=1;whiteSpace=wrap;html=1;align=left;" parent="1" vertex="1">
                    <mxGeometry x="800" y="520" width="120" height="60" as="geometry"/>
                </mxCell>
                <mxCell id="30" style="edgeStyle=orthogonalEdgeStyle;rounded=0;orthogonalLoop=1;jettySize=auto;html=1;exitX=0.5;exitY=1;exitDx=0;exitDy=0;" parent="1" source="27" target="5" edge="1">
                    <mxGeometry relative="1" as="geometry"/>
                </mxCell>
                <mxCell id="27" value="Middleware: &lt;br&gt;redirect" style="shape=ellipse;html=1;dashed=0;whitespace=wrap;perimeter=ellipsePerimeter;align=center;" parent="1" vertex="1">
                    <mxGeometry x="160" y="360" width="100" height="50" as="geometry"/>
                </mxCell>
                <mxCell id="38" style="edgeStyle=orthogonalEdgeStyle;rounded=0;orthogonalLoop=1;jettySize=auto;html=1;" parent="1" source="36" target="25" edge="1">
                    <mxGeometry relative="1" as="geometry"/>
                </mxCell>
                <mxCell id="36" value="Let's Encrypt" style="html=1;dashed=0;whitespace=wrap;align=center;" parent="1" vertex="1">
                    <mxGeometry x="650" y="525" width="100" height="50" as="geometry"/>
                </mxCell>
                <mxCell id="35" value="Let's Encrypt" style="html=1;dashed=0;whitespace=wrap;align=center;" parent="1" vertex="1">
                    <mxGeometry x="650" y="390" width="100" height="50" as="geometry"/>
                </mxCell>
                <mxCell id="41" value="React &lt;br&gt;(served by NGINX)" style="html=1;dashed=0;whitespace=wrap;align=center;" parent="1" vertex="1">
                    <mxGeometry x="1100" y="525" width="100" height="50" as="geometry"/>
                </mxCell>
                <mxCell id="45" value="Django" style="html=1;dashed=0;whitespace=wrap;align=center;" parent="1" vertex="1">
                    <mxGeometry x="1100" y="390" width="100" height="50" as="geometry"/>
                </mxCell>
                <mxCell id="52" value="Services" style="text;html=1;strokeColor=none;fillColor=none;align=center;verticalAlign=middle;whiteSpace=wrap;rounded=0;fontStyle=1;fontSize=18;" parent="1" vertex="1">
                    <mxGeometry x="1100" y="320" width="91.25" height="20" as="geometry"/>
                </mxCell>
                <mxCell id="54" value="&lt;font style=&quot;font-size: 10px&quot;&gt;Traefik port should be the HTTP port of the container, not the published port to the host&lt;/font&gt;" style="text;html=1;strokeColor=none;fillColor=none;align=left;verticalAlign=middle;whiteSpace=wrap;rounded=0;fontSize=18;" parent="1" vertex="1">
                    <mxGeometry x="1220" y="375" width="210" height="80" as="geometry"/>
                </mxCell>
                <mxCell id="55" value="&lt;font style=&quot;font-size: 9px&quot;&gt;NGINX typically listens on port 80, but Traefik also listens on port 80. Need to change NGINX port (e.g. 3000) and update NGINX.conf to listen on port 3000.&lt;br&gt;Also use `PUBLIC_URL` for subdirectories in React and basename for React Router must point to it.&lt;br&gt;&lt;/font&gt;" style="text;html=1;strokeColor=none;fillColor=none;align=left;verticalAlign=middle;whiteSpace=wrap;rounded=0;fontSize=18;" parent="1" vertex="1">
                    <mxGeometry x="1220" y="495" width="220" height="80" as="geometry"/>
                </mxCell>
                <mxCell id="56" value="Source:&amp;nbsp;https://doc.traefik.io/traefik/v2.0/routing/routers/" style="text;html=1;align=center;verticalAlign=middle;resizable=0;points=[];autosize=1;" parent="1" vertex="1">
                    <mxGeometry x="-50" y="750" width="310" height="20" as="geometry"/>
                </mxCell>
                <mxCell id="67" value="&lt;div&gt;&lt;span&gt;&lt;b&gt;Router 5 &quot;web-frontend-router&quot;&lt;/b&gt;&lt;/span&gt;&lt;/div&gt;&lt;b&gt;RULE: &lt;/b&gt;&quot;Host(`esgf-dev1.llnl.gov`)&amp;nbsp;&lt;br&gt;&lt;b&gt;MIDDLEWARE&lt;/b&gt;: redirect, csrf" style="rounded=0;whiteSpace=wrap;html=1;align=left;" vertex="1" parent="1">
                    <mxGeometry x="385" y="240" width="200" height="90" as="geometry"/>
                </mxCell>
                <mxCell id="72" style="edgeStyle=orthogonalEdgeStyle;rounded=0;orthogonalLoop=1;jettySize=auto;html=1;exitX=1;exitY=0.5;exitDx=0;exitDy=0;" edge="1" parent="1" source="69" target="71">
                    <mxGeometry relative="1" as="geometry"/>
                </mxCell>
                <mxCell id="69" value="&lt;div&gt;&lt;span&gt;&lt;b&gt;Router 6 &quot;web-proxy-secure-router&quot;&lt;/b&gt;&lt;/span&gt;&lt;/div&gt;&lt;b&gt;&lt;div&gt;&lt;b&gt;RULE:&amp;nbsp;&lt;/b&gt;&lt;span style=&quot;font-weight: normal&quot;&gt; &quot;Host(`esgf-dev1.llnl.gov`)&lt;/span&gt;&lt;/div&gt;&lt;/b&gt;&lt;b&gt;MIDDLEWARE:&lt;/b&gt; csrf" style="rounded=0;whiteSpace=wrap;html=1;align=left;" vertex="1" parent="1">
                    <mxGeometry x="385" y="620" width="200" height="90" as="geometry"/>
                </mxCell>
                <mxCell id="76" style="edgeStyle=orthogonalEdgeStyle;rounded=0;orthogonalLoop=1;jettySize=auto;html=1;" edge="1" parent="1" source="70" target="75">
                    <mxGeometry relative="1" as="geometry"/>
                </mxCell>
                <mxCell id="79" value="&lt;font style=&quot;font-size: 11px&quot;&gt;Port 3001&lt;/font&gt;" style="edgeLabel;html=1;align=center;verticalAlign=middle;resizable=0;points=[];fontSize=12;" vertex="1" connectable="0" parent="76">
                    <mxGeometry x="-0.0476" y="-1" relative="1" as="geometry">
                        <mxPoint x="14.29" y="-1" as="offset"/>
                    </mxGeometry>
                </mxCell>
                <mxCell id="70" value="&lt;font style=&quot;font-size: 11px&quot;&gt;Service: CORS Proxy&lt;br&gt;URL: http://proxy:3001&lt;/font&gt;" style="rounded=1;whiteSpace=wrap;html=1;align=left;" vertex="1" parent="1">
                    <mxGeometry x="800" y="635" width="120" height="60" as="geometry"/>
                </mxCell>
                <mxCell id="73" style="edgeStyle=orthogonalEdgeStyle;rounded=0;orthogonalLoop=1;jettySize=auto;html=1;entryX=0;entryY=0.5;entryDx=0;entryDy=0;" edge="1" parent="1" source="71" target="70">
                    <mxGeometry relative="1" as="geometry"/>
                </mxCell>
                <mxCell id="71" value="Let's Encrypt" style="html=1;dashed=0;whitespace=wrap;align=center;" vertex="1" parent="1">
                    <mxGeometry x="650" y="640" width="100" height="50" as="geometry"/>
                </mxCell>
                <mxCell id="75" value="CORS Proxy&lt;br&gt;(served by Node)" style="html=1;dashed=0;whitespace=wrap;align=center;" vertex="1" parent="1">
                    <mxGeometry x="1100" y="640" width="100" height="50" as="geometry"/>
                </mxCell>
                <mxCell id="77" value="Notes" style="text;html=1;strokeColor=none;fillColor=none;align=left;verticalAlign=middle;whiteSpace=wrap;rounded=0;fontStyle=0;fontSize=12;" vertex="1" parent="1">
                    <mxGeometry x="1275" y="360" width="91.25" height="20" as="geometry"/>
                </mxCell>
                <mxCell id="78" value="&lt;font style=&quot;font-size: 9px&quot;&gt;When requests are made to the CORS proxy, it looks for the URL trailing the '/' to perform the request against. (e.g. http://proxy:3001/URL).&lt;br&gt;If we use a `PathPrefix` in the Traefik route rule, it will cause an &quot;Invalid Host Header&quot; issue, so that's why this service is hosted at the root domain.&lt;br&gt;&lt;/font&gt;" style="text;html=1;strokeColor=none;fillColor=none;align=left;verticalAlign=middle;whiteSpace=wrap;rounded=0;fontSize=18;" vertex="1" parent="1">
                    <mxGeometry x="1220" y="630" width="220" height="80" as="geometry"/>
                </mxCell>
            </root>
        </mxGraphModel>
    </diagram>
</mxfile>